<svg xmlns="http://www.w3.org/2000/svg" width="1080" height="1080" viewBox="0 0 1080 1080" version="1.1"><path d="M 522 37.604 C 480.273 39.531, 440.199 45.780, 404.359 55.949 C 297.999 86.127, 206.411 148.632, 139.066 237 C 86.002 306.630, 51.317 392.576, 40.964 480.090 C 32.498 551.649, 39.613 626.599, 61.175 693 C 78.873 747.501, 105.223 798.270, 139.088 843.116 C 164.418 876.661, 197.713 910.304, 232.695 937.701 C 246.431 948.459, 275.041 967.586, 291.365 976.923 C 346.235 1008.308, 412.160 1030.395, 475 1038.446 C 520.136 1044.229, 571.013 1043.674, 616 1036.907 C 686.368 1026.323, 755.034 999.942, 815.435 960.285 C 844.251 941.366, 866.060 923.767, 891.257 899.100 C 950.688 840.919, 993.401 771.861, 1018.879 692.762 C 1034.884 643.071, 1042.258 594.888, 1042.258 540 C 1042.258 485.112, 1034.884 436.929, 1018.879 387.238 C 987.536 289.930, 928.689 205.869, 847.500 142.431 C 832.948 131.061, 804.020 111.807, 787.356 102.401 C 724.433 66.883, 652.103 44.635, 581.500 39.080 C 566.728 37.918, 533.212 37.087, 522 37.604 M 512.500 74.074 C 358.289 83.290, 219.569 167.519, 139.424 300.601 C 106.386 355.462, 85.367 416.403, 76.984 481.634 C 63.800 584.235, 86.188 690.999, 139.424 779.399 C 197.406 875.679, 286.885 947.594, 392.640 982.912 C 476.818 1011.024, 570.170 1014.218, 656.706 991.947 C 787.817 958.204, 899.315 867.294, 958.966 745.500 C 1003.616 654.335, 1017.204 553.794, 998.529 452.747 C 982.886 368.103, 940.973 285.590, 881.164 221.694 C 785.753 119.762, 650.983 65.798, 512.500 74.074 M 508 104.012 C 451.218 108.715, 399.873 122.533, 350.431 146.417 C 216.653 211.042, 124.507 339.603, 106.561 486.658 C 104.296 505.219, 102.740 537.055, 103.416 551 C 104.516 573.663, 105.236 583.484, 105.887 584.706 C 106.241 585.369, 115.704 539.919, 126.917 483.706 C 138.130 427.493, 147.702 380.712, 148.188 379.750 C 148.944 378.250, 150.575 378, 159.600 378 L 170.130 378 175.039 367.516 C 182.475 351.630, 193.012 333.205, 204.498 316 C 268.590 219.997, 370.296 155.946, 484 139.977 C 554.614 130.060, 630.403 139.549, 693 166.146 L 705.500 171.457 740.751 171.978 C 760.139 172.265, 775.997 172.275, 775.992 172 C 775.987 171.725, 770.893 168.475, 764.674 164.777 C 710.713 132.700, 652.277 113.086, 588 105.475 C 572.176 103.601, 523.669 102.714, 508 104.012 M 780.829 176.426 C 780.648 177.241, 776.198 182.541, 770.940 188.204 C 765.683 193.867, 761.059 199.038, 760.665 199.696 C 760.208 200.458, 762.222 202.422, 766.225 205.119 C 837.422 253.091, 894.090 326.447, 921.500 406.121 L 925.154 416.743 930.570 417.379 C 938.294 418.287, 951.120 423.224, 958.057 427.959 C 961.325 430.190, 964 431.855, 964 431.659 C 964 431.462, 962.208 425.175, 960.018 417.686 C 934.094 329.030, 881.174 251.346, 807.915 194.405 C 790.787 181.092, 781.205 174.731, 780.829 176.426 M 736 305.073 C 634.755 311.385, 549.697 338.962, 476.053 389.352 C 464.972 396.934, 438.675 417.093, 439.270 417.550 C 439.396 417.647, 443.100 417.303, 447.500 416.786 C 451.900 416.268, 459.887 416.107, 465.249 416.427 L 474.998 417.010 486.199 407.972 C 556.606 351.161, 646.623 316.707, 753.761 305.563 L 766.500 304.238 757.500 304.266 C 752.550 304.281, 742.875 304.644, 736 305.073 M 820.703 480.250 C 810.402 532.087, 801.981 574.837, 801.987 575.250 C 801.994 575.663, 812.800 576, 826 576 C 839.200 576, 850 575.823, 850 575.608 C 850 572.600, 865.474 500.807, 867.003 496.721 C 869.499 490.050, 876.604 481.763, 882.387 478.778 C 885.245 477.303, 888.997 476.518, 894.683 476.205 C 904.912 475.644, 910.428 477.858, 913.816 483.886 C 917.397 490.259, 916.753 496.818, 908.500 538 C 904.375 558.583, 901 575.562, 901 575.730 C 901 575.898, 911.891 575.915, 925.203 575.768 L 949.405 575.500 957.709 534.500 C 965.913 493.998, 966.010 493.342, 965.728 480.500 C 965.459 468.301, 965.247 467.086, 962.286 460.777 C 953.843 442.789, 937.489 434.242, 913.500 435.278 C 900.554 435.837, 892.474 438.112, 882.985 443.870 C 879.418 446.034, 876.358 447.422, 876.184 446.955 C 875.904 446.201, 886.350 392.156, 887.627 387.750 C 888.101 386.117, 886.502 386, 863.783 386 L 839.431 386 820.703 480.250 M 163.473 397.229 C 162.808 398.989, 128 573.167, 128 574.734 C 128 575.718, 133.075 576, 150.822 576 L 173.645 576 182.961 529.750 C 188.085 504.313, 192.581 483.157, 192.951 482.738 C 193.321 482.319, 200.807 498.969, 209.585 519.738 L 225.545 557.500 237.023 557.715 L 248.500 557.929 277.899 519.947 C 294.068 499.056, 307.480 482.146, 307.702 482.369 C 308.031 482.697, 292.199 565.948, 290.324 573.750 L 289.783 576 313.142 575.996 L 336.500 575.993 353.915 487.246 C 363.494 438.436, 371.529 397.938, 371.772 397.250 C 372.117 396.275, 367.475 396, 350.676 396 L 329.137 396 288.494 447.750 C 266.140 476.212, 247.524 499.620, 247.125 499.767 C 246.725 499.914, 236.961 476.739, 225.426 448.267 L 204.454 396.500 184.204 396.229 C 168.546 396.020, 163.844 396.247, 163.473 397.229 M 442.660 435.989 C 423.925 439.361, 408.188 447.630, 396.282 460.358 C 384.225 473.247, 377.746 487.958, 375.832 506.796 C 372.077 543.738, 393.625 570.533, 432.354 577.082 C 442.507 578.799, 466.420 577.718, 477 575.064 C 485.321 572.976, 501.165 565.908, 505.871 562.185 L 508.242 560.309 498.993 546.404 C 493.906 538.757, 489.406 532.128, 488.994 531.672 C 488.582 531.217, 485.823 532.211, 482.864 533.882 C 467.491 542.557, 447.913 544.043, 435.026 537.513 C 428.248 534.079, 423 526.371, 423 519.851 C 423 518.074, 425.036 518, 473.941 518 C 501.959 518, 525.115 517.623, 525.400 517.161 C 525.686 516.700, 526.473 511.336, 527.151 505.241 C 529.140 487.356, 526.124 473.562, 517.441 460.826 C 510.055 449.992, 498.646 442.188, 484 437.952 C 475.626 435.530, 451.559 434.387, 442.660 435.989 M 639.238 436.110 C 627.767 438.021, 615.538 443.511, 608.616 449.856 L 605.732 452.500 606.363 448.500 C 606.710 446.300, 607.281 442.804, 607.631 440.731 L 608.268 436.962 585.432 437.231 L 562.596 437.500 548.847 506 C 541.285 543.675, 535.076 574.846, 535.049 575.268 C 535.022 575.690, 545.879 575.915, 559.175 575.768 L 583.350 575.500 590.676 539.623 C 595.532 515.841, 598.888 501.771, 600.630 497.889 C 603.748 490.943, 610.901 483.829, 617.699 480.915 C 623.533 478.414, 634.090 477.016, 641.841 477.719 L 647.694 478.250 648.329 473.875 C 648.678 471.469, 650.479 461.738, 652.331 452.250 L 655.697 435 650.099 435.117 C 647.019 435.181, 642.132 435.628, 639.238 436.110 M 718.633 436.493 C 683.932 443.688, 658.602 467.786, 653.002 498.932 C 651.369 508.020, 651.606 524.334, 653.477 531.500 C 657.838 548.204, 669.533 562.400, 685 569.763 C 698.669 576.271, 704.871 577.485, 724.500 577.493 C 739.267 577.499, 742.539 577.199, 749.415 575.208 C 759.156 572.387, 769.745 567.174, 776.927 561.664 C 782.526 557.369, 793 545.501, 793 543.453 C 793 542.817, 785.351 537.663, 776.002 532.001 L 759.004 521.707 752.967 528.294 C 745.389 536.565, 739.319 539.202, 727.779 539.239 C 721.361 539.259, 719.113 538.801, 714.456 536.522 C 704.244 531.526, 700.510 523.639, 701.190 508.500 C 701.795 495.060, 706.607 485.806, 716.552 478.964 C 731.937 468.379, 752.553 473.073, 761.109 489.108 L 762.500 491.716 782 482.400 C 792.725 477.277, 801.950 472.901, 802.500 472.677 C 804.536 471.847, 798.358 462.288, 790.929 454.773 C 784.861 448.637, 781.561 446.224, 774.894 443.049 C 770.277 440.851, 763.800 438.315, 760.500 437.415 C 752.159 435.140, 727.751 434.603, 718.633 436.493 M 448 469.877 C 442.817 471.580, 437.378 474.959, 433.856 478.665 C 430.385 482.318, 426 489.739, 426 491.960 C 426 492.656, 435.478 493, 454.627 493 L 483.254 493 482.776 488.018 C 482.142 481.418, 478.322 476.037, 471.721 472.445 C 467.458 470.125, 465.085 469.566, 458.512 469.336 C 454.106 469.182, 449.375 469.426, 448 469.877 M 107.001 596.500 C 107.008 600.735, 112.239 629.144, 115.471 642.500 C 132.137 711.382, 165.243 775.178, 211.735 828 C 313.156 943.231, 464.297 996.484, 616 970.437 C 655.126 963.719, 700.188 948.958, 735.306 931.355 C 802.984 897.432, 862.322 845.139, 903.645 783 C 911.400 771.339, 918 760.579, 918 759.598 C 918 759.245, 909.349 759.079, 898.777 759.228 L 879.553 759.500 872.657 769.500 C 817.544 849.425, 733.573 907.940, 640.291 931.426 C 622.902 935.804, 603.606 939.373, 585 941.653 C 564.585 944.155, 516.398 944.154, 496.019 941.652 C 468.318 938.251, 448.250 934.125, 424.128 926.873 C 295.012 888.053, 192.767 785.903, 153.503 656.500 C 148.186 638.977, 144.135 620.961, 140.529 598.796 L 139.927 595.093 123.462 594.796 C 107.564 594.510, 106.997 594.569, 107.001 596.500 M 305.398 600.750 C 284.145 648.182, 268.702 700.506, 259.504 756.250 L 259.050 759 282.525 759 L 306 759 306 754.492 C 306 747.690, 309.748 722.273, 313.076 706.500 C 320.223 672.633, 331.277 637.513, 344.623 606.267 C 347.030 600.630, 349 595.789, 349 595.509 C 349 595.229, 339.769 595, 328.487 595 L 307.975 595 305.398 600.750 M 399.500 605.411 C 380.914 609.046, 367.606 618.955, 364.033 631.823 C 362.257 638.216, 362.758 648.869, 365.058 653.621 C 369.395 662.579, 376.535 666.950, 397.500 673.481 C 416.929 679.535, 421 682.493, 421 690.558 C 421 696.073, 417.867 699.915, 410.773 703.103 C 406.173 705.170, 403.969 705.473, 393.500 705.476 C 379.831 705.479, 371.195 703.296, 361.295 697.334 C 358.249 695.500, 355.626 694, 355.466 694 C 354.813 694, 347 709.255, 347 710.528 C 347 712.285, 361.658 719.488, 369.500 721.584 C 378.532 723.998, 398.835 724.544, 407.906 722.616 C 422.760 719.460, 434.606 711.592, 439.469 701.654 C 444.206 691.971, 444.069 680.382, 439.131 673.030 C 434.393 665.974, 428.473 662.676, 409.594 656.573 C 388.546 649.768, 384.500 647.046, 384.500 639.688 C 384.500 634.544, 386.742 630.822, 391.993 627.248 C 396.920 623.895, 402.478 622.656, 412.500 622.679 C 422.515 622.701, 431.403 624.650, 438.969 628.484 L 443.969 631.018 447.984 623.031 C 450.193 618.638, 452 614.626, 452 614.116 C 452 612.833, 438.695 607.468, 432 606.051 C 423.224 604.193, 407.332 603.880, 399.500 605.411 M 772.352 624 L 770.537 634 763.287 634 C 755.228 634, 756.208 633.047, 754.033 643 C 752.251 651.151, 752.136 651, 760.117 651 C 767.008 651, 767.214 651.071, 766.634 653.250 C 766.305 654.487, 764.180 664.717, 761.914 675.981 C 757.388 698.474, 757.161 704.820, 760.638 711.553 C 765.104 720.202, 776.028 724.934, 788.318 723.544 C 793.988 722.902, 805 719.455, 805 718.322 C 805 717.688, 802.096 706.032, 801.503 704.286 C 801.190 703.366, 800.412 703.425, 798.295 704.530 C 796.758 705.332, 792.913 705.990, 789.750 705.994 C 783.406 706.001, 780.596 704.223, 779.397 699.444 C 778.867 697.335, 785.343 660.586, 787.625 652.750 C 788.073 651.210, 789.560 651, 799.985 651 L 811.834 651 812.839 646.250 C 813.391 643.638, 814.154 639.813, 814.533 637.750 L 815.223 634 803.243 634 L 791.263 634 793.092 625.250 C 794.098 620.438, 794.939 615.938, 794.961 615.250 C 794.990 614.327, 792.271 614, 784.584 614 L 774.168 614 772.352 624 M 514.500 633.165 C 507.664 633.964, 501.100 636.105, 497.184 638.815 C 491.915 642.461, 491.903 642.459, 492.604 638.074 C 492.962 635.833, 492.861 633.957, 492.378 633.904 C 488.906 633.523, 474.671 633.598, 474.106 634 C 473.499 634.432, 449.873 752.158, 449.966 754.285 C 449.985 754.717, 454.613 754.942, 460.250 754.785 L 470.500 754.500 474.908 732.291 L 479.317 710.081 483.213 713.978 C 488.480 719.244, 494.169 721.811, 503.597 723.172 C 524.349 726.167, 545.210 714.985, 554.288 696 C 562.974 677.837, 561.400 657.335, 550.381 645.079 C 542.121 635.892, 528.857 631.488, 514.500 633.165 M 616.760 633.162 C 607.902 634.044, 601.424 636.276, 594.313 640.896 C 582.962 648.271, 576.235 657.737, 572.860 671.082 C 566.115 697.756, 579.637 719.030, 605.901 723.064 C 629.073 726.623, 651.530 715.656, 661.379 695.970 C 665.864 687.004, 667.326 679.697, 666.807 668.838 C 666.446 661.293, 665.910 659.144, 662.944 653.340 C 655.284 638.353, 638.458 631.001, 616.760 633.162 M 858.965 633.139 C 844.474 634.539, 832.489 641.299, 827.879 650.673 C 826.060 654.371, 825.504 657.154, 825.502 662.573 C 825.498 675.930, 831.231 680.577, 854.854 686.363 C 862.749 688.296, 870.061 690.651, 871.104 691.594 C 874.113 694.317, 873.585 699.330, 869.971 702.371 C 866.186 705.556, 861.737 706.510, 851.342 706.364 C 842.632 706.243, 830.989 703.343, 825.351 699.890 L 822.202 697.962 818.101 705.434 C 815.845 709.543, 814 713.344, 814 713.880 C 814 715.325, 823.564 719.530, 831.051 721.377 C 853.131 726.825, 876.633 722.631, 886.990 711.395 C 893.921 703.875, 895.796 691.518, 891.208 683.587 C 887.864 677.805, 881.406 674.566, 865.484 670.681 C 857.407 668.711, 849.719 666.391, 848.400 665.526 C 845.765 663.800, 845.171 659.418, 847.086 655.840 C 850.927 648.662, 874.033 647.621, 887.294 654.028 C 889.539 655.113, 891.538 656, 891.737 656 C 891.936 656, 893.716 652.593, 895.694 648.430 C 898.759 641.976, 899.083 640.660, 897.894 639.504 C 895.802 637.469, 884.952 634.115, 878.338 633.459 C 867.891 632.423, 866.597 632.402, 858.965 633.139 M 695.984 634.010 C 695.252 634.462, 678 718.696, 678 721.818 C 678 722.758, 680.557 722.999, 688.250 722.785 L 698.500 722.500 703.601 697.500 C 709.150 670.306, 711.207 664.660, 717.613 659.035 C 722.796 654.484, 727.211 652.865, 736.096 652.256 L 743.727 651.733 744.954 644.616 C 745.629 640.702, 746.431 636.419, 746.737 635.097 L 747.294 632.694 739.397 633.245 C 730.210 633.886, 722.285 636.633, 716.721 641.104 C 713.613 643.602, 712.892 643.873, 713.315 642.386 C 714.646 637.701, 715.090 633.992, 714.329 633.904 C 711.005 633.517, 696.646 633.601, 695.984 634.010 M 508.734 651.034 C 499.491 653.345, 491.665 659.991, 487.725 668.878 C 484.858 675.343, 484.232 686.702, 486.426 692.446 C 492.166 707.476, 514.177 710.442, 528.254 698.082 C 533.260 693.687, 537.683 684.472, 538.515 676.707 C 539.699 665.646, 535.900 657.181, 527.999 653.277 C 522.769 650.694, 514.123 649.687, 508.734 651.034 M 614.803 651.348 C 602.422 654.816, 594.054 665.369, 592.469 679.513 C 591.248 690.409, 595.150 698.942, 603.308 703.214 C 606.640 704.959, 609.142 705.400, 615.500 705.364 C 625.102 705.310, 629.282 703.688, 635.996 697.407 C 642.050 691.744, 645.155 684.752, 645.775 675.387 C 646.512 664.239, 643.106 657.135, 635.050 653.026 C 630.062 650.481, 620.676 649.703, 614.803 651.348" stroke="none" fill="#fffffe" fill-rule="evenodd"/><path d="M 532.250 73.743 C 536.513 73.931, 543.487 73.931, 547.750 73.743 C 552.013 73.556, 548.525 73.402, 540 73.402 C 531.475 73.402, 527.987 73.556, 532.250 73.743 M 510 137.011 C 409.624 145.303, 320.400 187.286, 250.500 259.114 C 220.187 290.262, 192.758 329.665, 175.039 367.516 L 170.130 378 189.315 377.996 L 208.500 377.991 212.304 370.582 C 238.104 320.323, 280.289 271.925, 327.258 238.696 C 378.201 202.655, 435.874 180.605, 499.500 172.842 C 517.030 170.703, 566.871 171.035, 585.445 173.414 C 596.541 174.836, 600.490 175.029, 600.779 174.164 C 601.069 173.293, 623.078 172.943, 688.333 172.775 C 748.666 172.620, 764.725 172.384, 740.500 172.009 L 705.500 171.468 693 166.151 C 661.584 152.789, 624.061 143.093, 586 138.502 C 570.223 136.599, 525.584 135.723, 510 137.011 M 628 190.838 C 628 191.299, 630.018 196.136, 632.484 201.588 C 634.950 207.040, 636.975 212.010, 636.984 212.634 C 636.993 213.265, 631.118 215.193, 623.750 216.978 C 536.908 238.014, 440.392 279.545, 370.500 325.951 C 363.350 330.698, 356.825 334.936, 356 335.368 C 352.220 337.348, 379.275 312.081, 390.961 302.719 C 429.673 271.703, 470.150 248.147, 518 228.788 C 534.264 222.208, 533.287 221.934, 510.226 226.614 C 426.712 243.561, 335.687 291.807, 260.500 358.976 C 250.970 367.490, 224 394.100, 224 394.989 C 224 395.383, 229.988 410.510, 237.308 428.603 C 248.084 455.243, 250.969 461.500, 252.476 461.500 C 253.736 461.500, 264.853 448.113, 286.940 420 L 319.543 378.500 355.522 378.236 C 386.720 378.006, 391.648 378.173, 392.611 379.487 C 393.449 380.630, 393.054 384.316, 391.007 394.463 L 388.292 407.923 392.036 404.712 C 421.748 379.226, 443.724 362.234, 467.742 346.176 C 514.004 315.246, 554.728 294.831, 603 278.373 C 622.341 271.779, 621.910 271.446, 599.500 275.667 C 544.225 286.080, 482.897 309.427, 432.611 339.200 C 427.172 342.420, 422.546 344.879, 422.332 344.665 C 422.117 344.450, 424.992 341.799, 428.721 338.773 C 458.129 314.906, 503.677 290.439, 561.225 267.594 C 587.703 257.084, 613.980 248.078, 652.216 236.410 C 653.596 235.989, 655.624 239.266, 662.579 253.158 L 671.226 270.430 674.295 266.965 C 675.983 265.059, 692.245 247.371, 710.432 227.657 C 728.619 207.944, 743.650 191.407, 743.833 190.907 C 744.030 190.371, 720.437 190, 686.083 190 C 654.138 190, 628 190.377, 628 190.838 M 748.112 212.605 C 741.298 220.040, 736.123 226.471, 736.612 226.896 C 737.100 227.322, 742 230.734, 747.500 234.479 C 778.042 255.276, 805.258 280.473, 828.664 309.620 C 839.143 322.670, 854.973 345.997, 862 358.743 L 866.500 366.906 886.135 367.203 L 905.770 367.500 900.951 357.900 C 870.822 297.876, 822.408 242.974, 766.225 205.119 C 762.773 202.794, 760.212 200.466, 760.534 199.946 C 761.937 197.675, 759.774 199.879, 748.112 212.605 M 230.479 231.250 L 221.500 240.500 230.750 231.521 C 239.341 223.181, 240.455 222, 239.729 222 C 239.580 222, 235.418 226.162, 230.479 231.250 M 904.606 395.415 C 902.500 406.093, 901.059 415.286, 901.404 415.844 C 901.888 416.628, 924.998 417.121, 925 416.347 C 925.006 413.701, 910.143 376, 909.094 376 C 908.731 376, 906.712 384.737, 904.606 395.415 M 851.308 385.748 C 858.353 385.920, 869.603 385.919, 876.308 385.747 C 883.014 385.574, 877.250 385.433, 863.500 385.434 C 849.750 385.434, 844.264 385.576, 851.308 385.748 M 455.280 416.736 C 457.909 416.943, 461.959 416.940, 464.280 416.731 C 466.601 416.521, 464.450 416.352, 459.500 416.355 C 454.550 416.358, 452.651 416.530, 455.280 416.736 M 966.343 482.500 C 966.346 486.900, 966.522 488.576, 966.733 486.224 C 966.945 483.872, 966.942 480.272, 966.727 478.224 C 966.512 476.176, 966.339 478.100, 966.343 482.500 M 474 518 L 422.500 518.527 473.691 518.764 C 506.997 518.917, 525.098 518.651, 525.500 518 C 525.840 517.450, 525.979 517.106, 525.809 517.236 C 525.639 517.366, 502.325 517.710, 474 518 M 73.402 540 C 73.402 548.525, 73.556 552.013, 73.743 547.750 C 73.931 543.487, 73.931 536.513, 73.743 532.250 C 73.556 527.987, 73.402 531.475, 73.402 540 M 1006.400 539.500 C 1006.401 547.750, 1006.556 550.992, 1006.744 546.704 C 1006.932 542.417, 1006.931 535.667, 1006.742 531.704 C 1006.552 527.742, 1006.399 531.250, 1006.400 539.500 M 201.449 552.250 C 201.717 553.487, 203.562 563.500, 205.548 574.500 C 211.848 609.383, 223.519 660.988, 231.105 687.500 C 237.201 708.804, 245.414 733.862, 246.151 733.407 C 246.618 733.118, 247.002 730.321, 247.004 727.191 C 247.021 703.790, 256.817 633.128, 267.014 582.848 C 269.206 572.039, 271 562.702, 271 562.098 C 271 559.674, 268.883 561.304, 264.308 567.250 C 256.141 577.865, 258.645 577, 236.082 577 C 225.127 577, 215.523 576.754, 214.740 576.454 C 213.958 576.153, 210.899 570.078, 207.943 562.954 C 204.987 555.829, 202.207 550, 201.765 550 C 201.323 550, 201.181 551.013, 201.449 552.250 M 225.882 558.286 C 226.316 558.718, 231.583 558.940, 237.586 558.780 L 248.500 558.490 236.796 557.995 C 230.359 557.723, 225.447 557.853, 225.882 558.286 M 445.776 578.733 C 448.128 578.945, 451.728 578.942, 453.776 578.727 C 455.824 578.512, 453.900 578.339, 449.500 578.343 C 445.100 578.346, 443.424 578.522, 445.776 578.733 M 720.776 578.733 C 723.128 578.945, 726.728 578.942, 728.776 578.727 C 730.824 578.512, 728.900 578.339, 724.500 578.343 C 720.100 578.346, 718.424 578.522, 720.776 578.733 M 123.709 594.748 L 139.919 595.049 140.525 598.775 C 150.842 662.132, 170.658 713.312, 204.498 764 C 266.309 856.586, 363.421 919.664, 473.019 938.416 C 496.170 942.377, 510.336 943.430, 540.500 943.430 C 579.931 943.430, 604.215 940.509, 640.291 931.426 C 733.574 907.940, 817.513 849.447, 872.659 769.500 L 879.557 759.500 899.208 759.500 L 918.858 759.500 925.386 747.500 C 947.200 707.398, 963.820 659.289, 971.349 614.451 L 973.692 600.500 667.147 600.248 C 498.548 600.110, 360.272 600.335, 359.866 600.748 C 358.535 602.107, 347.021 631.868, 342.037 646.834 C 330.020 682.920, 322.102 719.073, 318.621 753.748 L 318.095 758.996 577.731 759.248 L 837.368 759.500 826.944 772.500 C 814.657 787.822, 791.893 810.935, 776.675 823.536 C 721.456 869.264, 657.537 896.994, 585 906.693 C 567.977 908.969, 516.631 909.248, 499.500 907.158 C 435.874 899.395, 378.201 877.345, 327.258 841.304 C 293.747 817.596, 260.475 783.999, 236.836 750 C 205.526 704.967, 185.269 654.643, 175.550 597.750 L 174.909 594 141.205 594.223 C 122.667 594.346, 114.794 594.582, 123.709 594.748 M 307.655 594.750 C 307.400 595.163, 316.823 595.500, 328.595 595.500 C 340.368 595.500, 350 595.163, 350 594.750 C 350 594.337, 340.577 594, 329.059 594 C 317.541 594, 307.909 594.337, 307.655 594.750 M 399.500 605.411 C 380.914 609.046, 367.606 618.955, 364.033 631.823 C 362.257 638.216, 362.758 648.869, 365.058 653.621 C 369.395 662.579, 376.535 666.950, 397.500 673.481 C 416.929 679.535, 421 682.493, 421 690.558 C 421 696.073, 417.867 699.915, 410.773 703.103 C 406.173 705.170, 403.969 705.473, 393.500 705.476 C 379.831 705.479, 371.195 703.296, 361.295 697.334 C 358.249 695.500, 355.626 694, 355.466 694 C 354.813 694, 347 709.255, 347 710.528 C 347 712.285, 361.658 719.488, 369.500 721.584 C 378.532 723.998, 398.835 724.544, 407.906 722.616 C 422.760 719.460, 434.606 711.592, 439.469 701.654 C 444.206 691.971, 444.069 680.382, 439.131 673.030 C 434.393 665.974, 428.473 662.676, 409.594 656.573 C 388.546 649.768, 384.500 647.046, 384.500 639.688 C 384.500 634.544, 386.742 630.822, 391.993 627.248 C 396.920 623.895, 402.478 622.656, 412.500 622.679 C 422.515 622.701, 431.403 624.650, 438.969 628.484 L 443.969 631.018 447.984 623.031 C 450.193 618.638, 452 614.626, 452 614.116 C 452 612.833, 438.695 607.468, 432 606.051 C 423.224 604.193, 407.332 603.880, 399.500 605.411 M 772.352 624 L 770.537 634 763.287 634 C 755.228 634, 756.208 633.047, 754.033 643 C 752.251 651.151, 752.136 651, 760.117 651 C 767.008 651, 767.214 651.071, 766.634 653.250 C 766.305 654.487, 764.180 664.717, 761.914 675.981 C 757.388 698.474, 757.161 704.820, 760.638 711.553 C 765.104 720.202, 776.028 724.934, 788.318 723.544 C 793.988 722.902, 805 719.455, 805 718.322 C 805 717.688, 802.096 706.032, 801.503 704.286 C 801.190 703.366, 800.412 703.425, 798.295 704.530 C 796.758 705.332, 792.913 705.990, 789.750 705.994 C 783.406 706.001, 780.596 704.223, 779.397 699.444 C 778.867 697.335, 785.343 660.586, 787.625 652.750 C 788.073 651.210, 789.560 651, 799.985 651 L 811.834 651 812.839 646.250 C 813.391 643.638, 814.154 639.813, 814.533 637.750 L 815.223 634 803.243 634 L 791.263 634 793.092 625.250 C 794.098 620.438, 794.939 615.938, 794.961 615.250 C 794.990 614.327, 792.271 614, 784.584 614 L 774.168 614 772.352 624 M 514.500 633.165 C 507.664 633.964, 501.100 636.105, 497.184 638.815 C 491.915 642.461, 491.903 642.459, 492.604 638.074 C 492.962 635.833, 492.861 633.957, 492.378 633.904 C 488.906 633.523, 474.671 633.598, 474.106 634 C 473.499 634.432, 449.873 752.158, 449.966 754.285 C 449.985 754.717, 454.613 754.942, 460.250 754.785 L 470.500 754.500 474.908 732.291 L 479.317 710.081 483.213 713.978 C 488.480 719.244, 494.169 721.811, 503.597 723.172 C 524.349 726.167, 545.210 714.985, 554.288 696 C 562.974 677.837, 561.400 657.335, 550.381 645.079 C 542.121 635.892, 528.857 631.488, 514.500 633.165 M 616.760 633.162 C 607.902 634.044, 601.424 636.276, 594.313 640.896 C 582.962 648.271, 576.235 657.737, 572.860 671.082 C 566.115 697.756, 579.637 719.030, 605.901 723.064 C 629.073 726.623, 651.530 715.656, 661.379 695.970 C 665.864 687.004, 667.326 679.697, 666.807 668.838 C 666.446 661.293, 665.910 659.144, 662.944 653.340 C 655.284 638.353, 638.458 631.001, 616.760 633.162 M 858.965 633.139 C 844.474 634.539, 832.489 641.299, 827.879 650.673 C 826.060 654.371, 825.504 657.154, 825.502 662.573 C 825.498 675.930, 831.231 680.577, 854.854 686.363 C 862.749 688.296, 870.061 690.651, 871.104 691.594 C 874.113 694.317, 873.585 699.330, 869.971 702.371 C 866.186 705.556, 861.737 706.510, 851.342 706.364 C 842.632 706.243, 830.989 703.343, 825.351 699.890 L 822.202 697.962 818.101 705.434 C 815.845 709.543, 814 713.344, 814 713.880 C 814 715.325, 823.564 719.530, 831.051 721.377 C 853.131 726.825, 876.633 722.631, 886.990 711.395 C 893.921 703.875, 895.796 691.518, 891.208 683.587 C 887.864 677.805, 881.406 674.566, 865.484 670.681 C 857.407 668.711, 849.719 666.391, 848.400 665.526 C 845.765 663.800, 845.171 659.418, 847.086 655.840 C 850.927 648.662, 874.033 647.621, 887.294 654.028 C 889.539 655.113, 891.538 656, 891.737 656 C 891.936 656, 893.716 652.593, 895.694 648.430 C 898.759 641.976, 899.083 640.660, 897.894 639.504 C 895.802 637.469, 884.952 634.115, 878.338 633.459 C 867.891 632.423, 866.597 632.402, 858.965 633.139 M 695.984 634.010 C 695.252 634.462, 678 718.696, 678 721.818 C 678 722.758, 680.557 722.999, 688.250 722.785 L 698.500 722.500 703.601 697.500 C 709.150 670.306, 711.207 664.660, 717.613 659.035 C 722.796 654.484, 727.211 652.865, 736.096 652.256 L 743.727 651.733 744.954 644.616 C 745.629 640.702, 746.431 636.419, 746.737 635.097 L 747.294 632.694 739.397 633.245 C 730.210 633.886, 722.285 636.633, 716.721 641.104 C 713.613 643.602, 712.892 643.873, 713.315 642.386 C 714.646 637.701, 715.090 633.992, 714.329 633.904 C 711.005 633.517, 696.646 633.601, 695.984 634.010 M 508.734 651.034 C 499.491 653.345, 491.665 659.991, 487.725 668.878 C 484.858 675.343, 484.232 686.702, 486.426 692.446 C 492.166 707.476, 514.177 710.442, 528.254 698.082 C 533.260 693.687, 537.683 684.472, 538.515 676.707 C 539.699 665.646, 535.900 657.181, 527.999 653.277 C 522.769 650.694, 514.123 649.687, 508.734 651.034 M 614.803 651.348 C 602.422 654.816, 594.054 665.369, 592.469 679.513 C 591.248 690.409, 595.150 698.942, 603.308 703.214 C 606.640 704.959, 609.142 705.400, 615.500 705.364 C 625.102 705.310, 629.282 703.688, 635.996 697.407 C 642.050 691.744, 645.155 684.752, 645.775 675.387 C 646.512 664.239, 643.106 657.135, 635.050 653.026 C 630.062 650.481, 620.676 649.703, 614.803 651.348 M 270.250 759.747 C 276.712 759.921, 287.288 759.921, 293.750 759.747 C 300.212 759.573, 294.925 759.430, 282 759.430 C 269.075 759.430, 263.788 759.573, 270.250 759.747 M 230.500 849 C 235.427 853.950, 239.683 858, 239.958 858 C 240.233 858, 236.427 853.950, 231.500 849 C 226.573 844.050, 222.317 840, 222.042 840 C 221.767 840, 225.573 844.050, 230.500 849 M 532.296 1006.744 C 536.583 1006.932, 543.333 1006.931, 547.296 1006.742 C 551.258 1006.552, 547.750 1006.399, 539.500 1006.400 C 531.250 1006.401, 528.008 1006.556, 532.296 1006.744" stroke="none" fill="#99cd43" fill-rule="evenodd"/><path d="M 507.500 74.631 C 416.576 81.749, 333.346 112.656, 261.409 166.017 C 227.735 190.995, 190.995 227.735, 166.017 261.409 C 116.196 328.574, 87.033 402.575, 76.325 489 C 73.744 509.831, 73.744 570.169, 76.325 591 C 87.016 677.286, 116.277 751.535, 166.017 818.591 C 190.995 852.265, 227.735 889.005, 261.409 913.983 C 320.246 957.626, 389.919 987.604, 460 999.432 C 491.486 1004.745, 501.110 1005.472, 540 1005.472 C 578.890 1005.472, 588.514 1004.745, 620 999.432 C 690.081 987.604, 759.754 957.626, 818.591 913.983 C 852.265 889.005, 889.005 852.265, 913.983 818.591 C 963.691 751.578, 993.002 677.204, 1003.677 591 C 1006.256 570.166, 1006.256 509.825, 1003.675 489 C 992.967 402.575, 963.804 328.574, 913.983 261.409 C 889.005 227.735, 852.265 190.995, 818.591 166.017 C 751.765 116.448, 677.243 86.994, 592 76.460 C 579.092 74.864, 520.670 73.601, 507.500 74.631 M 507.500 103.685 C 493.156 104.934, 473.565 107.478, 462 109.592 C 346.366 130.729, 244.249 197.389, 178.145 294.887 C 126.698 370.768, 100.727 459.726, 103.375 551 C 104.089 575.630, 104.930 588, 105.889 588 C 106.230 588, 115.832 541.374, 127.226 484.386 C 138.621 427.399, 148.461 380.149, 149.094 379.386 C 150.027 378.263, 155.766 377.999, 179.372 377.996 L 208.500 377.991 212.304 370.582 C 238.104 320.323, 280.289 271.925, 327.258 238.696 C 378.201 202.655, 435.874 180.605, 499.500 172.842 C 517.030 170.703, 566.871 171.035, 585.445 173.414 C 596.541 174.836, 600.490 175.029, 600.779 174.164 C 601.070 173.290, 623.100 173, 689.142 173 C 747.367 173, 776.910 172.663, 776.502 172.003 C 776.163 171.455, 770.935 168.067, 764.884 164.476 C 708.057 130.743, 646.883 110.732, 581.589 104.515 C 567.187 103.144, 519.806 102.613, 507.500 103.685 M 781 175.827 C 781 176.731, 778.133 179.946, 750.705 209.812 C 742.466 218.784, 736.124 226.472, 736.612 226.897 C 737.101 227.322, 742 230.734, 747.500 234.479 C 778.042 255.276, 805.258 280.473, 828.664 309.620 C 839.168 322.702, 855.001 346.039, 862 358.758 L 866.500 366.935 885.993 367.218 L 905.486 367.500 907.146 371.026 C 908.753 374.442, 908.681 375.173, 904.828 394.361 C 902.640 405.255, 901.120 414.870, 901.449 415.729 C 901.949 417.030, 903.278 417.185, 909.451 416.664 C 925.400 415.315, 945.286 419.944, 956.843 427.694 C 960.398 430.077, 963.525 431.809, 963.792 431.541 C 964.969 430.364, 955 399.066, 946.787 378.152 C 939.390 359.316, 925.848 331.968, 915.092 314.146 C 884.702 263.790, 841.486 217.180, 794 183.544 C 783.072 175.804, 781 174.574, 781 175.827 M 628 190.838 C 628 191.299, 630.018 196.136, 632.484 201.588 C 634.950 207.040, 636.975 212.010, 636.984 212.634 C 636.993 213.265, 631.118 215.193, 623.750 216.978 C 536.908 238.014, 440.392 279.545, 370.500 325.951 C 363.350 330.698, 356.825 334.936, 356 335.368 C 352.220 337.348, 379.275 312.081, 390.961 302.719 C 429.673 271.703, 470.150 248.147, 518 228.788 C 534.264 222.208, 533.287 221.934, 510.226 226.614 C 426.712 243.561, 335.687 291.807, 260.500 358.976 C 250.970 367.490, 224 394.100, 224 394.989 C 224 395.383, 229.988 410.510, 237.308 428.603 C 248.084 455.243, 250.969 461.500, 252.476 461.500 C 253.736 461.500, 264.853 448.113, 286.940 420 L 319.543 378.500 355.522 378.236 C 386.720 378.006, 391.648 378.173, 392.611 379.487 C 393.449 380.630, 393.054 384.316, 391.007 394.463 L 388.292 407.923 392.036 404.712 C 421.748 379.226, 443.724 362.234, 467.742 346.176 C 514.004 315.246, 554.728 294.831, 603 278.373 C 622.341 271.779, 621.910 271.446, 599.500 275.667 C 544.225 286.080, 482.897 309.427, 432.611 339.200 C 427.172 342.420, 422.546 344.879, 422.332 344.665 C 422.117 344.450, 424.992 341.799, 428.721 338.773 C 458.129 314.906, 503.677 290.439, 561.225 267.594 C 587.703 257.084, 613.980 248.078, 652.216 236.410 C 653.596 235.989, 655.624 239.266, 662.579 253.158 L 671.226 270.430 674.295 266.965 C 675.983 265.059, 692.245 247.371, 710.432 227.657 C 728.619 207.944, 743.650 191.407, 743.833 190.907 C 744.030 190.371, 720.437 190, 686.083 190 C 654.138 190, 628 190.377, 628 190.838 M 736 304.661 C 633.875 311.736, 553.726 337.133, 481 385.465 C 470.433 392.488, 449.850 407.843, 443.154 413.699 L 438.807 417.500 457.154 417.259 L 475.500 417.017 486 408.623 C 535.768 368.835, 594.253 339.920, 660 322.599 C 687.081 315.464, 726.195 308.641, 757.500 305.592 L 771.500 304.228 756 304.289 C 747.475 304.322, 738.475 304.490, 736 304.661 M 820.551 479.250 C 810.257 531.087, 801.658 574.070, 801.442 574.767 C 801.131 575.772, 806.163 575.979, 825.700 575.767 L 850.350 575.500 858.039 537.952 C 862.268 517.300, 866.698 498.211, 867.883 495.531 C 871.178 488.084, 876.318 482.482, 882.761 479.318 C 890.220 475.655, 902.376 475.272, 908 478.523 C 912.491 481.119, 916 487.907, 916 494 C 916 496.516, 912.625 515.417, 908.500 536 C 904.375 556.583, 901 574.004, 901 574.712 C 901 575.727, 906.156 576, 925.352 576 L 949.705 576 957.946 534.788 C 966.964 489.685, 967.842 482.921, 966.054 472.318 C 962.006 448.319, 943.954 434.614, 916.500 434.697 C 902.198 434.741, 891.430 437.712, 881.250 444.424 C 878.362 446.327, 876 447.777, 876 447.645 C 876 447.513, 878.700 433.948, 882 417.500 C 885.300 401.052, 888 387.011, 888 386.297 C 888 385.270, 882.933 385, 863.634 385 L 839.268 385 820.551 479.250 M 163 396.266 C 163 396.734, 128.064 571.409, 127.502 573.750 L 126.962 576 150.462 576 L 173.962 576 174.485 573.750 C 174.773 572.513, 178.843 552.375, 183.530 529 C 188.217 505.625, 192.390 485.672, 192.805 484.661 C 193.353 483.324, 197.933 493.170, 209.552 520.661 L 225.545 558.500 236.722 558.782 L 247.898 559.065 276.987 521.568 C 304.465 486.148, 308.608 481.078, 307.525 484.198 C 306.882 486.050, 290 573.312, 290 574.783 C 290 575.705, 295.703 576, 313.500 576 C 326.425 576, 337 575.824, 337 575.609 C 337 575.394, 344.875 535.250, 354.500 486.400 C 364.125 437.551, 372 397.227, 372 396.791 C 372 396.356, 362.212 396.010, 350.250 396.021 L 328.500 396.042 288.163 447.521 C 265.977 475.835, 247.497 499, 247.096 499 C 246.694 499, 236.996 475.825, 225.544 447.500 L 204.722 396 183.861 396 C 172.387 396, 163 396.120, 163 396.266 M 446.688 435.110 C 424.537 437.768, 402.928 449.596, 391.232 465.463 C 381.128 479.171, 376.241 493.015, 375.308 510.573 C 373.520 544.244, 391.683 567.813, 425.903 576.223 C 437.185 578.996, 460.503 579.170, 472.438 576.570 C 487.697 573.247, 508.602 563.408, 507.703 559.973 C 507.402 558.820, 490.760 533.051, 488.477 530.203 C 488.347 530.040, 486.273 531.216, 483.870 532.817 C 476.397 537.796, 468.485 540.198, 457.704 540.760 C 438.184 541.779, 426.900 535.516, 423.471 521.759 L 422.788 519.018 474.136 518.759 L 525.485 518.500 526.696 512 C 528.379 502.966, 528.262 487.737, 526.451 480.053 C 521.435 458.772, 504.993 442.889, 482 437.115 C 472.655 434.768, 456.961 433.877, 446.688 435.110 M 644.021 435.125 C 630.749 436.662, 620.643 440.497, 610.627 447.799 C 606.730 450.640, 605.864 450.965, 606.302 449.426 C 606.604 448.366, 607.143 445.925, 607.500 444 C 607.857 442.075, 608.371 439.712, 608.642 438.750 C 609.101 437.119, 607.541 437, 585.716 437 L 562.297 437 548.648 505.250 C 541.142 542.788, 535 574.063, 535 574.750 C 535 575.716, 540.532 576, 559.327 576 L 583.655 576 590.883 540.250 C 596.936 510.310, 598.675 503.331, 601.583 497.304 C 608.103 483.794, 617.090 478.847, 636 478.361 L 647.500 478.065 651.668 457.783 C 653.960 446.627, 655.872 436.712, 655.918 435.750 C 656.010 433.797, 655.655 433.778, 644.021 435.125 M 730 434.590 C 714.874 436.227, 702.777 439.740, 692.145 445.584 C 667.707 459.017, 653.205 481.928, 651.356 510.027 C 649.171 543.222, 667.927 567.835, 701.791 576.211 C 713.992 579.229, 735.939 579.192, 747.500 576.135 C 760.083 572.808, 772.948 565.957, 781.158 558.212 C 787.590 552.145, 794.693 543.357, 793.846 542.515 C 793.656 542.325, 785.625 537.389, 776 531.545 L 758.500 520.920 757 523.201 C 753.457 528.589, 748.440 533.128, 743.161 535.720 C 738.177 538.168, 736.364 538.500, 728 538.500 C 717.757 538.500, 714.289 537.359, 708.658 532.136 C 703.051 526.934, 701.540 522.531, 701.579 511.500 C 701.627 497.983, 704.016 491.811, 712.476 483.344 C 719.413 476.401, 725.197 473.996, 734.932 474.006 C 747.093 474.018, 754.641 478.682, 761.500 490.423 C 762.394 491.954, 764.665 491.109, 783 482.420 C 794.275 477.077, 803.661 472.573, 803.857 472.412 C 804.991 471.482, 796.642 459.509, 790.879 453.800 C 783.017 446.012, 770.073 439.158, 758.500 436.655 C 751.108 435.056, 735.887 433.953, 730 434.590 M 450.267 470 C 440.654 472.021, 433.786 477.172, 429.179 485.815 C 427.431 489.096, 426 492.054, 426 492.390 C 426 492.725, 438.825 493, 454.500 493 L 483 493 482.994 490.750 C 482.959 476.558, 467.051 466.472, 450.267 470 M 201.449 552.250 C 201.717 553.487, 203.562 563.500, 205.548 574.500 C 211.848 609.383, 223.519 660.988, 231.105 687.500 C 237.201 708.804, 245.414 733.862, 246.151 733.407 C 246.618 733.118, 247.002 730.321, 247.004 727.191 C 247.021 703.790, 256.817 633.128, 267.014 582.848 C 269.206 572.039, 271 562.702, 271 562.098 C 271 559.674, 268.883 561.304, 264.308 567.250 C 256.141 577.865, 258.645 577, 236.082 577 C 225.127 577, 215.523 576.754, 214.740 576.454 C 213.958 576.153, 210.899 570.078, 207.943 562.954 C 204.987 555.829, 202.207 550, 201.765 550 C 201.323 550, 201.181 551.013, 201.449 552.250 M 106.609 597.500 C 123.552 719.922, 187.982 826.166, 288.727 897.806 C 346.660 939.002, 415.854 965.432, 490 974.686 C 508.101 976.945, 568.866 977.276, 586.500 975.213 C 649.579 967.830, 705.499 949.650, 758.195 919.394 C 870.650 854.827, 950.062 741.219, 971.349 614.451 L 973.692 600.500 667.147 600.248 C 498.548 600.110, 360.272 600.335, 359.866 600.748 C 358.535 602.107, 347.021 631.868, 342.037 646.834 C 330.020 682.920, 322.102 719.073, 318.621 753.748 L 318.095 758.996 577.731 759.248 L 837.368 759.500 826.944 772.500 C 814.657 787.822, 791.893 810.935, 776.675 823.536 C 721.456 869.264, 657.537 896.994, 585 906.693 C 567.977 908.969, 516.631 909.248, 499.500 907.158 C 435.874 899.395, 378.201 877.345, 327.258 841.304 C 293.747 817.596, 260.475 783.999, 236.836 750 C 205.533 704.977, 185.258 654.612, 175.555 597.775 L 174.919 594.051 140.487 593.775 L 106.055 593.500 106.609 597.500 M 305.411 599.750 C 290.960 632.168, 278.803 667.735, 269.589 704.556 C 265.593 720.528, 260.455 745.700, 259.447 754.250 L 258.770 760 281.826 760 C 294.507 760, 305.085 759.663, 305.334 759.250 C 305.583 758.837, 306.301 753.550, 306.930 747.500 C 311.444 704.099, 328.802 641.154, 347.381 600.814 C 348.822 597.687, 350 594.874, 350 594.564 C 350 594.254, 340.544 594, 328.987 594 L 307.975 594 305.411 599.750" stroke="none" fill="#040404" fill-rule="evenodd"/></svg>